<svg width="41" height="41" viewBox="0 0 41 41" fill="none" xmlns="http://www.w3.org/2000/svg">
<g clip-path="url(#clip0_51_2)">
<path d="M20.5 0C9.17816 0 0 9.17816 0 20.5C0 31.8218 9.17816 41 20.5 41C31.8218 41 41 31.8218 41 20.5C41 9.17816 31.8218 0 20.5 0ZM20.5 2.23218C30.589 2.23218 38.7678 10.411 38.7678 20.5C38.7678 30.589 30.589 38.7678 20.5 38.7678C10.411 38.7678 2.23218 30.589 2.23218 20.5C2.23218 10.411 10.411 2.23218 20.5 2.23218ZM11.4337 7.5824C10.9134 9.09462 10.733 10.7359 11.1984 12.1694C10.6362 12.7934 10.1996 13.5102 9.88715 14.3215C9.05447 16.9532 9.25787 20.3152 11.0808 22.3493C11.7212 23.0514 12.59 23.6285 13.6834 24.081C14.7767 24.5334 16.1819 24.822 17.9 24.9469C16.7468 25.4857 15.9339 25.8149 15.6502 27.0064C14.364 27.8659 12.7998 27.6608 11.6663 26.7261C10.7706 26.072 10.3648 24.9097 9.37161 24.4789C9.30915 24.4165 9.11403 24.37 8.78603 24.3387C8.45803 24.3075 8.20021 24.4006 8.01277 24.619C7.91905 24.7126 7.92595 24.8126 8.03528 24.9218C8.78715 25.5333 9.51084 26.1814 9.93464 26.9588C10.3407 27.8012 10.7611 28.4181 11.1984 28.8081C12.4115 29.6278 14.0385 30.0543 15.4626 29.5338C15.2965 30.5358 15.7445 32.1007 15.415 32.9971C15.29 33.2468 15.1112 33.4656 14.877 33.6527C14.6682 33.8564 14.0207 34.1112 14.1513 34.4235C14.2137 34.5639 14.4321 34.6501 14.8069 34.6813C15.632 34.6602 16.4535 34.3266 16.9389 33.6753C17.1107 33.4413 17.1967 33.1364 17.1967 32.7619V28.9257C17.1967 28.4889 17.2895 28.177 17.477 27.9898C17.6643 27.8026 17.8689 27.6768 18.0875 27.6145V32.6693C18.0875 33.1062 18.0481 33.4809 17.97 33.793C17.8919 34.105 17.8222 34.3238 17.7598 34.4486C17.6164 34.6891 17.3422 34.911 17.3369 35.1968C17.3369 35.2903 17.3927 35.3439 17.502 35.3595C18.3227 35.3239 19.2749 34.8424 19.6091 34.1657C19.8746 33.6041 20.007 33.0131 20.007 32.389V27.4267H21.038V32.389C21.038 33.0131 21.1797 33.6041 21.4609 34.1658C21.7421 34.7274 22.2113 35.0883 22.8673 35.2443C23.2109 35.3379 23.443 35.375 23.568 35.3594C23.6929 35.3438 23.7487 35.2904 23.7331 35.1968C23.6579 34.9132 23.5011 34.6707 23.3352 34.4485C23.1166 34.1677 23.0074 33.5742 23.0074 32.6693V27.6145C23.226 27.6768 23.4374 27.8026 23.6405 27.9898C23.8435 28.177 23.9432 28.4889 23.9432 28.9258V32.762C23.9432 33.1364 24.0292 33.4414 24.201 33.6754C24.7232 34.3394 25.5101 34.6763 26.333 34.6813C26.7079 34.6501 26.9262 34.5639 26.9887 34.4236C27.0511 34.2832 27.0047 34.1668 26.8485 34.0732C26.6923 33.9796 26.4972 33.84 26.2629 33.6528C26.0286 33.4656 25.8498 33.2467 25.7249 32.9972C25.5846 31.3876 25.7213 29.6622 25.6073 28.0348C25.3822 26.2589 24.6986 25.6746 23.3351 24.9944C24.9595 24.8696 26.295 24.5715 27.3415 24.1035C30.4697 22.5837 31.3347 20.2339 31.3479 17.0842C31.2986 15.0571 30.7134 13.2888 29.3785 11.9342C29.5659 11.2166 29.6217 10.4696 29.5436 9.68953C29.4655 8.90947 29.3005 8.20653 29.0506 7.58247C27.895 7.64486 26.9263 7.8775 26.1453 8.28316C25.3644 8.68882 24.8022 9.03336 24.4587 9.31417C21.6906 8.68575 18.7275 8.68199 16.073 9.40677C14.7149 8.29577 13.0315 7.67684 11.4337 7.5824Z" fill="white"/>
</g>
<defs>
<clipPath id="clip0_51_2">
<rect width="41" height="41" fill="white"/>
</clipPath>
</defs>
</svg>
