<svg width="40" height="40" viewBox="0 0 40 40" fill="none" xmlns="http://www.w3.org/2000/svg">
<path fill-rule="evenodd" clip-rule="evenodd" d="M25.4545 20.0004C25.4545 21.4471 24.8798 22.8345 23.8569 23.8574C22.834 24.8803 21.4466 25.455 20 25.455C18.5533 25.455 17.1659 24.8803 16.143 23.8574C15.1201 22.8345 14.5454 21.4471 14.5454 20.0004C14.5454 18.5538 15.1201 17.1664 16.143 16.1435C17.1659 15.1206 18.5533 14.5459 20 14.5459C21.4466 14.5459 22.834 15.1206 23.8569 16.1435C24.8798 17.1664 25.4545 18.5538 25.4545 20.0004ZM21.8181 20.0004C21.8181 20.4827 21.6266 20.9451 21.2856 21.2861C20.9446 21.6271 20.4822 21.8186 20 21.8186C19.5177 21.8186 19.0553 21.6271 18.7143 21.2861C18.3733 20.9451 18.1818 20.4827 18.1818 20.0004C18.1818 19.5182 18.3733 19.0558 18.7143 18.7148C19.0553 18.3738 19.5177 18.1823 20 18.1823C20.4822 18.1823 20.9446 18.3738 21.2856 18.7148C21.6266 19.0558 21.8181 19.5182 21.8181 20.0004Z" fill="black"/>
<path fill-rule="evenodd" clip-rule="evenodd" d="M20.0002 32.727C21.6716 32.727 23.3266 32.3978 24.8707 31.7582C26.4149 31.1186 27.8179 30.1811 28.9998 28.9993C30.1816 27.8174 31.1191 26.4144 31.7587 24.8703C32.3983 23.3261 32.7275 21.6711 32.7275 19.9997C32.7275 18.3284 32.3983 16.6734 31.7587 15.1292C31.1191 13.5851 30.1816 12.182 28.9998 11.0002C27.8179 9.81836 26.4149 8.88087 24.8707 8.24127C23.3266 7.60166 21.6716 7.27246 20.0002 7.27246C16.6247 7.27246 13.3875 8.61337 11.0007 11.0002C8.61385 13.387 7.27295 16.6243 7.27295 19.9997C7.27295 23.3752 8.61385 26.6124 11.0007 28.9993C13.3875 31.3861 16.6247 32.727 20.0002 32.727ZM20.0002 29.0906C22.4113 29.0906 24.7236 28.1329 26.4285 26.428C28.1333 24.7231 29.0911 22.4108 29.0911 19.9997C29.0911 17.5887 28.1333 15.2764 26.4285 13.5715C24.7236 11.8666 22.4113 10.9088 20.0002 10.9088C17.5892 10.9088 15.2769 11.8666 13.572 13.5715C11.8671 15.2764 10.9093 17.5887 10.9093 19.9997C10.9093 22.4108 11.8671 24.7231 13.572 26.428C15.2769 28.1329 17.5892 29.0906 20.0002 29.0906Z" fill="black"/>
<path fill-rule="evenodd" clip-rule="evenodd" d="M20 40C31.0455 40 40 31.0455 40 20C40 8.95455 31.0455 0 20 0C8.95455 0 0 8.95455 0 20C0 31.0455 8.95455 40 20 40ZM20 36.3636C22.1489 36.3636 24.2768 35.9404 26.2621 35.118C28.2474 34.2957 30.0513 33.0903 31.5708 31.5708C33.0903 30.0513 34.2957 28.2474 35.118 26.2621C35.9404 24.2768 36.3636 22.1489 36.3636 20C36.3636 17.8511 35.9404 15.7232 35.118 13.7379C34.2957 11.7526 33.0903 9.94867 31.5708 8.42916C30.0513 6.90966 28.2474 5.70432 26.2621 4.88197C24.2768 4.05962 22.1489 3.63636 20 3.63636C15.6601 3.63636 11.4979 5.36038 8.42916 8.42916C5.36039 11.4979 3.63636 15.6601 3.63636 20C3.63636 24.3399 5.36039 28.5021 8.42916 31.5708C11.4979 34.6396 15.6601 36.3636 20 36.3636Z" fill="black"/>
</svg>
