<svg width="67" height="63" viewBox="0 0 67 63" fill="none" xmlns="http://www.w3.org/2000/svg">
<path d="M25.212 39.898C18.876 42.67 12.056 43.638 4.752 42.802C3.3 42.098 2.42 41.218 2.112 40.162C1.76 39.15 2.288 38.468 3.696 38.116C3.74 38.072 3.784 38.05 3.828 38.05C6.028 38.05 7.26 37.038 7.524 35.014C7.568 34.882 7.59 34.75 7.59 34.618C7.59 34.486 7.59 34.376 7.59 34.288V13.96C7.59 10.44 7.238 8.042 6.534 6.766C5.83 5.49 4.598 4.478 2.838 3.73L2.442 2.938C2.398 2.542 2.53 2.19 2.838 1.882C2.838 1.882 2.86 1.816 2.904 1.684C2.948 1.552 3.014 1.376 3.102 1.156C3.322 0.935997 3.564 0.825996 3.828 0.825996H10.296C10.604 0.825996 10.978 0.825996 11.418 0.825996C11.902 0.825996 12.43 0.803996 13.002 0.759997C16.918 0.627999 19.932 0.935999 22.044 1.684C22.396 1.86 22.748 2.036 23.1 2.212C23.496 2.344 23.87 2.52 24.222 2.74C28.798 4.72 32.23 8.548 34.518 14.224C34.694 14.62 34.848 15.038 34.98 15.478C35.112 15.874 35.266 16.292 35.442 16.732C36.102 22.408 35.904 26.742 34.848 29.734C34.144 31.67 33.088 33.54 31.68 35.344C29.524 37.368 28.006 38.6 27.126 39.04C26.818 39.216 26.51 39.392 26.202 39.568C25.894 39.7 25.564 39.81 25.212 39.898ZM13.068 39.04C15.488 39.964 18.568 39.48 22.308 37.588C25.652 35.96 27.83 34.002 28.842 31.714C28.886 31.67 28.908 31.626 28.908 31.582C30.58 26.478 30.866 20.89 29.766 14.818C29.018 8.262 25.476 4.61 19.14 3.862C18.744 3.818 18.348 3.796 17.952 3.796C17.556 3.752 17.16 3.73 16.764 3.73C14.52 3.73 13.134 4.236 12.606 5.248C12.298 5.864 12.144 6.876 12.144 8.284C12.144 12.64 12.078 16.446 11.946 19.702C11.814 22.958 11.594 25.664 11.286 27.82V37.126L13.068 39.04ZM45.1492 42.472C43.9172 43.044 42.7512 42.824 41.6512 41.812L41.3212 41.482C41.0572 41.13 40.9252 40.822 40.9252 40.558C40.9252 40.25 40.9912 40.008 41.1232 39.832L41.3212 39.568C42.0692 38.908 43.0372 38.578 44.2252 38.578C46.9532 38.094 48.5812 37.632 49.1092 37.192C49.6812 36.664 49.9672 35.3 49.9672 33.1V9.868C49.9672 7.976 49.7912 6.81 49.4392 6.37C49.0872 6.018 47.9652 5.6 46.0732 5.116C45.4572 4.896 44.7092 4.764 43.8292 4.72C42.6412 4.676 41.9152 4.368 41.6512 3.796C41.3872 3.18 41.2772 2.322 41.3212 1.222C42.9932 1.002 45.1492 0.891999 47.7892 0.891999C50.4292 0.847997 53.5092 0.913996 57.0292 1.09C58.1292 1.134 59.1192 1.178 59.9992 1.222C60.8792 1.222 61.6712 1.222 62.3752 1.222L63.2992 2.212C63.2992 2.52 63.2112 2.828 63.0352 3.136C62.9032 3.444 62.7492 3.686 62.5732 3.862L62.3752 4.126C62.1992 4.126 61.7812 4.192 61.1212 4.324C60.5052 4.412 59.6252 4.566 58.4812 4.786C57.9972 4.874 57.5132 4.962 57.0292 5.05C56.5892 5.094 56.1492 5.116 55.7092 5.116C55.7092 12.068 55.3792 17.172 54.7192 20.428V31.912C54.2352 34.684 54.1472 36.378 54.4552 36.994C54.7632 37.654 55.9512 38.358 58.0192 39.106C58.1952 39.15 58.3932 39.216 58.6132 39.304C58.8772 39.392 59.1632 39.48 59.4712 39.568C60.7912 39.656 61.7592 39.964 62.3752 40.492V41.482C61.8912 42.362 60.8352 42.714 59.2072 42.538C59.0312 42.494 58.8992 42.472 58.8112 42.472C58.7232 42.472 58.6352 42.472 58.5472 42.472C53.7072 41.46 50.2312 41.13 48.1192 41.482C47.0192 41.658 46.0292 41.988 45.1492 42.472Z" fill="black"/>
<path d="M7.82 59.53C6.86 59.95 5.82667 60.0967 4.72 59.97C4.5 59.8633 4.36667 59.73 4.32 59.57C4.26667 59.4167 4.34667 59.3133 4.56 59.26C4.56667 59.2533 4.57333 59.25 4.58 59.25C4.91333 59.25 5.1 59.0967 5.14 58.79C5.14667 58.77 5.15 58.75 5.15 58.73C5.15 58.71 5.15 58.6933 5.15 58.68V55.6C5.15 55.0667 5.09667 54.7033 4.99 54.51C4.88333 54.3167 4.69667 54.1633 4.43 54.05L4.37 53.93C4.36333 53.87 4.38333 53.8167 4.43 53.77C4.43 53.77 4.43333 53.76 4.44 53.74C4.44667 53.72 4.45667 53.6933 4.47 53.66C4.50333 53.6267 4.54 53.61 4.58 53.61H5.56C5.60667 53.61 5.66333 53.61 5.73 53.61C5.80333 53.61 5.88333 53.6067 5.97 53.6C6.56333 53.58 7.02 53.6267 7.34 53.74C7.39333 53.7667 7.44667 53.7933 7.5 53.82C7.56 53.84 7.61667 53.8667 7.67 53.9C8.36333 54.2 8.88333 54.78 9.23 55.64C9.25667 55.7 9.28 55.7633 9.3 55.83C9.32 55.89 9.34333 55.9533 9.37 56.02C9.47 56.88 9.44 57.5367 9.28 57.99C9.17333 58.2833 9.01333 58.5667 8.8 58.84C8.47333 59.1467 8.24333 59.3333 8.11 59.4C8.06333 59.4267 8.01667 59.4533 7.97 59.48C7.92333 59.5 7.87333 59.5167 7.82 59.53ZM5.98 59.4C6.34667 59.54 6.81333 59.4667 7.38 59.18C7.88667 58.9333 8.21667 58.6367 8.37 58.29C8.37667 58.2833 8.38 58.2767 8.38 58.27C8.63333 57.4967 8.67667 56.65 8.51 55.73C8.39667 54.7367 7.86 54.1833 6.9 54.07C6.84 54.0633 6.78 54.06 6.72 54.06C6.66 54.0533 6.6 54.05 6.54 54.05C6.2 54.05 5.99 54.1267 5.91 54.28C5.86333 54.3733 5.84 54.5267 5.84 54.74C5.84 55.4 5.83 55.9767 5.81 56.47C5.79 56.9633 5.75667 57.3733 5.71 57.7V59.11L5.98 59.4ZM12.2508 54.14C12.1441 54.2133 12.0374 54.25 11.9308 54.25C11.6108 54.25 11.3708 54.1233 11.2108 53.87C11.1374 53.7567 11.1008 53.6433 11.1008 53.53C11.1541 53.43 11.2174 53.34 11.2908 53.26C11.3708 53.1733 11.4641 53.0967 11.5708 53.03C11.6641 52.97 11.7441 52.94 11.8108 52.94C12.0508 52.94 12.2474 53.0567 12.4008 53.29C12.4808 53.41 12.5208 53.53 12.5208 53.65C12.5208 53.8433 12.4308 54.0067 12.2508 54.14ZM13.5908 59.86C12.3774 60.08 11.3008 60.0967 10.3608 59.91C10.2208 59.95 10.1308 59.92 10.0908 59.82C10.0708 59.7467 10.0808 59.6667 10.1208 59.58C10.2474 59.4933 10.4708 59.4767 10.7908 59.53C10.9108 59.5567 11.0141 59.57 11.1008 59.57C11.1874 59.57 11.2574 59.5633 11.3108 59.55C11.4908 59.55 11.5941 59.52 11.6208 59.46C11.6408 59.42 11.6508 59.3667 11.6508 59.3C11.6508 59.2867 11.6508 59.27 11.6508 59.25C11.6574 59.23 11.6641 59.2067 11.6708 59.18C11.7108 59.0133 11.7041 58.8967 11.6508 58.83C11.6241 58.5967 11.6341 58.1667 11.6808 57.54C11.7208 56.9933 11.6741 56.5567 11.5408 56.23C11.3541 56.17 11.0574 56.1633 10.6508 56.21C10.6174 56.2167 10.5841 56.22 10.5508 56.22C10.5241 56.22 10.4974 56.2233 10.4708 56.23C10.2708 56.2433 10.1408 56.1867 10.0808 56.06C10.0208 55.9333 10.1041 55.8367 10.3308 55.77C10.3374 55.7633 10.3474 55.76 10.3608 55.76C10.4341 55.76 10.8508 55.73 11.6108 55.67C11.8508 55.65 12.0641 55.64 12.2508 55.64C12.3308 56.0667 12.3508 56.7467 12.3108 57.68C12.2708 58.4533 12.2908 59.0367 12.3708 59.43H12.9008C13.0074 59.4233 13.1041 59.42 13.1908 59.42C13.2841 59.42 13.3674 59.42 13.4408 59.42C13.4941 59.42 13.5441 59.4567 13.5908 59.53C13.6441 59.6033 13.6741 59.6767 13.6808 59.75C13.6874 59.8233 13.6574 59.86 13.5908 59.86ZM17.3226 60C16.4892 60.14 15.8192 60.0867 15.3126 59.84C15.2126 59.8 15.1292 59.7567 15.0626 59.71C14.6026 59.3967 14.3659 58.97 14.3526 58.43C14.2859 57.6033 14.5126 56.9033 15.0326 56.33C15.5126 55.81 16.0892 55.56 16.7626 55.58C16.7892 55.58 16.8126 55.58 16.8326 55.58C16.8592 55.58 16.8859 55.5833 16.9126 55.59H18.0426C18.0426 55.49 18.0792 55.3833 18.1526 55.27C18.1726 55.23 18.1826 55.1967 18.1826 55.17C18.1826 54.8167 18.1526 54.5967 18.0926 54.51C18.0259 54.4233 17.8192 54.31 17.4726 54.17C17.4259 54.17 17.3792 54.16 17.3326 54.14C17.2859 54.1133 17.2526 54.0867 17.2326 54.06L17.1926 54.03C17.1926 53.9433 17.2259 53.9 17.2926 53.9L17.3226 53.89C17.9292 53.69 18.3026 53.5933 18.4426 53.6C18.6492 53.62 18.7826 53.7767 18.8426 54.07C18.8559 54.1633 18.8659 54.28 18.8726 54.42C18.8859 54.5533 18.8926 54.7067 18.8926 54.88C18.9259 55.1533 18.9426 55.5133 18.9426 55.96C18.9492 56.4 18.9392 56.9267 18.9126 57.54C18.9059 57.7467 18.8992 57.94 18.8926 58.12C18.8926 58.2933 18.8926 58.4467 18.8926 58.58C18.8926 58.96 18.9926 59.21 19.1926 59.33C19.2526 59.3633 19.3426 59.3967 19.4626 59.43C19.6492 59.4767 19.6826 59.58 19.5626 59.74C19.4292 59.92 19.2359 60.0267 18.9826 60.06C18.8359 60.0667 18.7092 60.0467 18.6026 60C18.3226 59.7867 18.0392 59.73 17.7526 59.83C17.7392 59.8367 17.7159 59.8467 17.6826 59.86C17.6559 59.8733 17.6226 59.8867 17.5826 59.9C17.5292 59.9267 17.4792 59.9467 17.4326 59.96C17.3926 59.9733 17.3559 59.9867 17.3226 60ZM16.1326 59.67C16.1659 59.6767 16.1992 59.6833 16.2326 59.69C16.2726 59.6967 16.3092 59.7033 16.3426 59.71C16.3759 59.71 16.4526 59.6933 16.5726 59.66C16.7859 59.6 16.9459 59.57 17.0526 59.57C17.5592 59.43 17.8792 59.2433 18.0126 59.01C18.1259 58.8167 18.1826 58.48 18.1826 58V56.73C18.1826 56.31 18.0126 56.0767 17.6726 56.03C17.6459 56.0233 17.6126 56.02 17.5726 56.02C17.5392 56.02 17.5059 56.02 17.4726 56.02H17.0526C16.4792 56.0333 16.0992 56.1767 15.9126 56.45C15.4459 57.0767 15.2126 57.7367 15.2126 58.43C15.0859 59.07 15.3926 59.4833 16.1326 59.67ZM24.9887 60.27C24.762 60.3433 24.5853 60.3067 24.4587 60.16L24.4287 60.13C24.122 59.9033 23.7753 59.83 23.3887 59.91C23.3353 59.9167 23.2087 59.9467 23.0087 60C22.7487 60.0867 22.3187 60.13 21.7187 60.13C21.3187 60.13 20.9487 59.95 20.6087 59.59C20.5753 59.55 20.542 59.51 20.5087 59.47C20.482 59.43 20.4553 59.3933 20.4287 59.36C20.2153 58.9267 20.192 58.5567 20.3587 58.25C20.432 58.11 20.5387 58.0033 20.6787 57.93C21.372 57.4167 22.0187 57.16 22.6187 57.16H23.5187C23.692 57.0467 23.7787 56.9167 23.7787 56.77C23.7653 56.3167 23.552 56.0167 23.1387 55.87C22.732 55.87 22.452 55.9133 22.2987 56C22.1787 56.0667 22.0687 56.15 21.9687 56.25C21.8687 56.3633 21.7387 56.39 21.5787 56.33C21.532 56.31 21.492 56.2833 21.4587 56.25C21.292 56.0833 21.2487 55.9567 21.3287 55.87L21.5887 55.61C22.302 55.37 22.9687 55.3833 23.5887 55.65C23.622 55.6633 23.6553 55.68 23.6887 55.7C23.722 55.7133 23.752 55.7267 23.7787 55.74C24.172 56.06 24.3887 56.4033 24.4287 56.77C24.4753 56.9433 24.5087 57.14 24.5287 57.36C24.5487 57.58 24.5587 57.8167 24.5587 58.07C24.5453 58.1367 24.532 58.2267 24.5187 58.34C24.5053 58.4533 24.4953 58.5933 24.4887 58.76C24.482 58.86 24.462 58.93 24.4287 58.97C24.4353 59.5567 24.6487 59.8567 25.0687 59.87C25.1287 59.87 25.1653 59.8867 25.1787 59.92C25.1853 59.9467 25.1887 59.9667 25.1887 59.98C25.1953 59.9867 25.1987 59.9933 25.1987 60C25.232 60.12 25.162 60.21 24.9887 60.27ZM21.0687 59.36C21.1553 59.6333 21.3553 59.7767 21.6687 59.79C21.7553 59.79 21.8553 59.7733 21.9687 59.74C22.222 59.74 22.6187 59.64 23.1587 59.44C23.212 59.4267 23.2587 59.4133 23.2987 59.4C23.3387 59.38 23.372 59.3667 23.3987 59.36C23.6387 59.3533 23.7653 59.2233 23.7787 58.97V58.45C23.8453 58.03 23.782 57.7567 23.5887 57.63C23.462 57.5433 23.2253 57.4733 22.8787 57.42C22.832 57.42 22.752 57.43 22.6387 57.45C22.5253 57.4633 22.3753 57.4867 22.1887 57.52C22.142 57.5267 22.102 57.5333 22.0687 57.54C22.0353 57.54 22.002 57.54 21.9687 57.54C21.6287 57.6667 21.3287 57.9267 21.0687 58.32C20.9353 58.6 20.9353 58.9467 21.0687 59.36ZM30.0205 59.92C29.8338 60.0067 29.6571 59.9733 29.4905 59.82L29.4405 59.77C29.4005 59.7167 29.3805 59.67 29.3805 59.63C29.3805 59.5833 29.3905 59.5467 29.4105 59.52L29.4405 59.48C29.5538 59.38 29.7005 59.33 29.8805 59.33C30.2938 59.2567 30.5405 59.1867 30.6205 59.12C30.7071 59.04 30.7505 58.8333 30.7505 58.5V54.98C30.7505 54.6933 30.7238 54.5167 30.6705 54.45C30.6171 54.3967 30.4471 54.3333 30.1605 54.26C30.0671 54.2267 29.9538 54.2067 29.8205 54.2C29.6405 54.1933 29.5305 54.1467 29.4905 54.06C29.4505 53.9667 29.4338 53.8367 29.4405 53.67C29.6938 53.6367 30.0205 53.62 30.4205 53.62C30.8205 53.6133 31.2871 53.6233 31.8205 53.65C31.9871 53.6567 32.1371 53.6633 32.2705 53.67C32.4038 53.67 32.5238 53.67 32.6305 53.67L32.7705 53.82C32.7705 53.8667 32.7571 53.9133 32.7305 53.96C32.7105 54.0067 32.6871 54.0433 32.6605 54.07L32.6305 54.11C32.6038 54.11 32.5405 54.12 32.4405 54.14C32.3471 54.1533 32.2138 54.1767 32.0405 54.21C31.9671 54.2233 31.8938 54.2367 31.8205 54.25C31.7538 54.2567 31.6871 54.26 31.6205 54.26C31.6205 55.3133 31.5705 56.0867 31.4705 56.58V58.32C31.3971 58.74 31.3838 58.9967 31.4305 59.09C31.4771 59.19 31.6571 59.2967 31.9705 59.41C31.9971 59.4167 32.0271 59.4267 32.0605 59.44C32.1005 59.4533 32.1438 59.4667 32.1905 59.48C32.3905 59.4933 32.5371 59.54 32.6305 59.62V59.77C32.5571 59.9033 32.3971 59.9567 32.1505 59.93C32.1238 59.9233 32.1038 59.92 32.0905 59.92C32.0771 59.92 32.0638 59.92 32.0505 59.92C31.3171 59.7667 30.7905 59.7167 30.4705 59.77C30.3038 59.7967 30.1538 59.8467 30.0205 59.92ZM36.3095 59.94C35.6761 60.04 34.9228 60.03 34.0495 59.91C34.0961 59.7633 34.1995 59.6433 34.3595 59.55C34.4195 59.5167 34.4628 59.4867 34.4895 59.46C34.6028 59.3333 34.6761 59.1867 34.7095 59.02C34.7095 58.8 34.7195 58.4667 34.7395 58.02C34.7728 57.1267 34.7628 56.4567 34.7095 56.01C34.6561 55.97 34.4961 55.9867 34.2295 56.06C33.9628 56.1267 33.7495 56.14 33.5895 56.1C33.4295 56.0867 33.4028 56.0067 33.5095 55.86C33.6628 55.7067 33.9728 55.5867 34.4395 55.5C34.5128 55.4867 34.5828 55.4767 34.6495 55.47C34.7161 55.4633 34.7761 55.46 34.8295 55.46C35.0561 55.38 35.2128 55.43 35.2995 55.61C35.3128 55.6367 35.3261 55.6667 35.3395 55.7C35.3528 55.7267 35.3661 55.7567 35.3795 55.79C35.4128 55.8233 35.4461 55.88 35.4795 55.96C35.5195 56.0333 35.5495 56.1 35.5695 56.16L35.5995 56.24C36.1528 55.7933 36.7828 55.57 37.4895 55.57C37.7628 55.6033 37.9961 55.7667 38.1895 56.06C38.2161 56.1 38.2328 56.1367 38.2395 56.17C38.2528 56.1967 38.2628 56.22 38.2695 56.24C38.1161 56.5 37.8928 56.5367 37.5995 56.35C37.5328 56.33 37.4428 56.29 37.3295 56.23C37.0761 56.11 36.8761 56.0733 36.7295 56.12C36.7228 56.1267 36.7161 56.13 36.7095 56.13C36.2161 56.3833 35.8828 56.64 35.7095 56.9C35.4895 57.1267 35.3795 57.3867 35.3795 57.68V58.57C35.3795 58.6167 35.3795 58.67 35.3795 58.73C35.3795 58.79 35.3761 58.8567 35.3695 58.93C35.3495 59.1367 35.3695 59.2667 35.4295 59.32C35.5161 59.3733 35.7595 59.42 36.1595 59.46C36.2795 59.4733 36.3628 59.5267 36.4095 59.62C36.4561 59.72 36.4228 59.8267 36.3095 59.94ZM42.3898 59.95C41.8898 60.27 41.4265 60.2167 40.9998 59.79C40.6798 59.65 40.3698 59.65 40.0698 59.79C39.7832 59.9767 39.5598 59.9733 39.3998 59.78C39.3265 59.6867 39.2898 59.5867 39.2898 59.48C39.2898 58.86 39.3032 58.3167 39.3298 57.85C39.3565 57.3833 39.3965 56.9933 39.4498 56.68V55.75C39.4498 55.2833 39.4165 54.98 39.3498 54.84C39.2898 54.7 39.0765 54.4467 38.7098 54.08L38.6698 54.04C38.8832 53.94 39.0898 53.89 39.2898 53.89C39.8232 53.6833 40.1498 53.59 40.2698 53.61C40.3965 53.6367 40.4565 53.8 40.4498 54.1C40.4432 54.1667 40.4332 54.26 40.4198 54.38C40.4132 54.5 40.3998 54.6467 40.3798 54.82C40.2732 54.9267 40.2198 55.0833 40.2198 55.29C40.2265 55.5833 40.3798 55.7367 40.6798 55.75C40.7998 55.65 40.9598 55.6 41.1598 55.6C41.9732 55.3933 42.7132 55.5367 43.3798 56.03C43.4732 56.0967 43.5665 56.1733 43.6598 56.26C43.7532 56.34 43.8498 56.43 43.9498 56.53C44.3498 57.0967 44.4732 57.6867 44.3198 58.3C44.1732 58.8667 43.8432 59.26 43.3298 59.48L42.3898 59.95ZM40.3798 59.02C40.9065 59.4467 41.3932 59.6233 41.8398 59.55C41.9732 59.5233 42.1132 59.48 42.2598 59.42C42.4065 59.36 42.5565 59.2767 42.7098 59.17C43.1632 58.8567 43.4232 58.4167 43.4898 57.85C43.5632 57.2567 43.4032 56.7633 43.0098 56.37C42.4098 55.9367 41.6898 55.8867 40.8498 56.22C40.3298 56.48 40.0698 56.8933 40.0698 57.46V57.93C40.0698 58.1167 40.1265 58.3867 40.2398 58.74C40.2665 58.8067 40.2898 58.8633 40.3098 58.91C40.3365 58.9567 40.3598 58.9933 40.3798 59.02ZM49.9008 60.27C49.6741 60.3433 49.4974 60.3067 49.3708 60.16L49.3408 60.13C49.0341 59.9033 48.6874 59.83 48.3008 59.91C48.2474 59.9167 48.1208 59.9467 47.9208 60C47.6608 60.0867 47.2308 60.13 46.6308 60.13C46.2308 60.13 45.8608 59.95 45.5208 59.59C45.4874 59.55 45.4541 59.51 45.4208 59.47C45.3941 59.43 45.3674 59.3933 45.3408 59.36C45.1274 58.9267 45.1041 58.5567 45.2708 58.25C45.3441 58.11 45.4508 58.0033 45.5908 57.93C46.2841 57.4167 46.9308 57.16 47.5308 57.16H48.4308C48.6041 57.0467 48.6908 56.9167 48.6908 56.77C48.6774 56.3167 48.4641 56.0167 48.0508 55.87C47.6441 55.87 47.3641 55.9133 47.2108 56C47.0908 56.0667 46.9808 56.15 46.8808 56.25C46.7808 56.3633 46.6508 56.39 46.4908 56.33C46.4441 56.31 46.4041 56.2833 46.3708 56.25C46.2041 56.0833 46.1608 55.9567 46.2408 55.87L46.5008 55.61C47.2141 55.37 47.8808 55.3833 48.5008 55.65C48.5341 55.6633 48.5674 55.68 48.6008 55.7C48.6341 55.7133 48.6641 55.7267 48.6908 55.74C49.0841 56.06 49.3008 56.4033 49.3408 56.77C49.3874 56.9433 49.4208 57.14 49.4408 57.36C49.4608 57.58 49.4708 57.8167 49.4708 58.07C49.4574 58.1367 49.4441 58.2267 49.4308 58.34C49.4174 58.4533 49.4074 58.5933 49.4008 58.76C49.3941 58.86 49.3741 58.93 49.3408 58.97C49.3474 59.5567 49.5608 59.8567 49.9808 59.87C50.0408 59.87 50.0774 59.8867 50.0908 59.92C50.0974 59.9467 50.1008 59.9667 50.1008 59.98C50.1074 59.9867 50.1108 59.9933 50.1108 60C50.1441 60.12 50.0741 60.21 49.9008 60.27ZM45.9808 59.36C46.0674 59.6333 46.2674 59.7767 46.5808 59.79C46.6674 59.79 46.7674 59.7733 46.8808 59.74C47.1341 59.74 47.5308 59.64 48.0708 59.44C48.1241 59.4267 48.1708 59.4133 48.2108 59.4C48.2508 59.38 48.2841 59.3667 48.3108 59.36C48.5508 59.3533 48.6774 59.2233 48.6908 58.97V58.45C48.7574 58.03 48.6941 57.7567 48.5008 57.63C48.3741 57.5433 48.1374 57.4733 47.7908 57.42C47.7441 57.42 47.6641 57.43 47.5508 57.45C47.4374 57.4633 47.2874 57.4867 47.1008 57.52C47.0541 57.5267 47.0141 57.5333 46.9808 57.54C46.9474 57.54 46.9141 57.54 46.8808 57.54C46.5408 57.6667 46.2408 57.9267 45.9808 58.32C45.8474 58.6 45.8474 58.9467 45.9808 59.36ZM51.9465 61.76C51.6265 62.08 51.1698 62.1633 50.5765 62.01C50.3765 61.91 50.3165 61.7667 50.3965 61.58C50.4632 61.4 50.6132 61.2933 50.8465 61.26C50.9265 61.2467 51.0032 61.25 51.0765 61.27C51.1898 61.3167 51.3032 61.34 51.4165 61.34C51.4698 61.34 51.5165 61.3367 51.5565 61.33C51.5965 61.33 51.6298 61.3267 51.6565 61.32C51.7098 61.3133 51.7832 61.2633 51.8765 61.17C51.9298 61.11 51.9665 61.0667 51.9865 61.04C52.0132 61.0133 52.0398 60.98 52.0665 60.94C52.0932 60.9067 52.1332 60.85 52.1865 60.77L52.1965 60.76C52.3898 60.4333 52.5398 60.1667 52.6465 59.96C52.7532 59.7467 52.8198 59.5867 52.8465 59.48C52.9065 59.2067 52.8432 58.8633 52.6565 58.45C52.6298 58.3833 52.5865 58.2933 52.5265 58.18C52.4732 58.0667 52.4065 57.93 52.3265 57.77C52.1532 57.43 52.0265 57.22 51.9465 57.14C51.7865 56.52 51.4598 56.1733 50.9665 56.1C50.8798 56.0933 50.7898 55.99 50.6965 55.79C50.6698 55.7433 50.6498 55.7067 50.6365 55.68C50.6232 55.6533 50.6132 55.6333 50.6065 55.62C50.6132 55.62 51.3098 55.63 52.6965 55.65C52.8432 55.65 52.9298 55.72 52.9565 55.86C52.9832 55.9867 52.9365 56.08 52.8165 56.14C52.5098 56.26 52.4298 56.47 52.5765 56.77C52.6698 57.1367 52.9198 57.72 53.3265 58.52C53.5798 58.1933 53.7998 57.8733 53.9865 57.56C54.1732 57.2467 54.3265 56.9433 54.4465 56.65C54.5998 56.4967 54.5732 56.3567 54.3665 56.23C54.3465 56.2167 54.3198 56.2033 54.2865 56.19C54.2598 56.1767 54.2298 56.16 54.1965 56.14C54.0832 56.14 54.0265 56.0767 54.0265 55.95C54.0132 55.7967 54.0832 55.7 54.2365 55.66C54.2565 55.6533 54.2865 55.65 54.3265 55.65L55.9665 55.7C55.9065 55.8667 55.8132 55.9933 55.6865 56.08C55.6332 56.1133 55.5865 56.1467 55.5465 56.18C55.5065 56.2133 55.4732 56.2433 55.4465 56.27C55.2998 56.5833 55.1732 56.7933 55.0665 56.9C54.6398 57.6067 54.2398 58.2733 53.8665 58.9C53.4932 59.5267 53.1432 60.1067 52.8165 60.64C52.6498 60.8867 52.4932 61.1033 52.3465 61.29C52.2065 61.4767 52.0732 61.6333 51.9465 61.76ZM60.5326 59.85C59.9459 60.1367 59.3059 60.1667 58.6126 59.94C58.4526 59.8933 58.1592 59.7733 57.7326 59.58C57.1792 59.2067 56.8792 58.71 56.8326 58.09C56.8192 57.81 56.8526 57.55 56.9326 57.31C57.1459 56.4367 57.6759 55.86 58.5226 55.58C58.6292 55.5467 58.7392 55.52 58.8526 55.5C58.9659 55.4733 59.0792 55.4533 59.1926 55.44H59.8726C60.4859 55.44 60.9092 55.5767 61.1426 55.85C61.3092 56.07 61.4592 56.4667 61.5926 57.04C61.6926 57.2267 61.6326 57.3767 61.4126 57.49C61.3526 57.5167 61.2826 57.5467 61.2026 57.58C61.0692 57.58 60.6459 57.62 59.9326 57.7C59.4726 57.7467 59.0926 57.7467 58.7926 57.7C58.3526 57.7 57.9992 57.7467 57.7326 57.84C57.6126 58.3067 57.6792 58.6967 57.9326 59.01C57.9859 59.07 58.0492 59.1267 58.1226 59.18C58.5159 59.48 58.8392 59.6467 59.0926 59.68C59.2992 59.7 59.5126 59.6667 59.7326 59.58C60.0726 59.4667 60.3492 59.38 60.5626 59.32C60.7826 59.2533 60.9392 59.2067 61.0326 59.18C61.0992 59.1067 61.1792 59.1033 61.2726 59.17C61.3992 59.25 61.3926 59.3667 61.2526 59.52C61.2392 59.54 61.2226 59.56 61.2026 59.58C61.1492 59.6333 61.0059 59.6933 60.7726 59.76C60.6859 59.7867 60.6059 59.8167 60.5326 59.85ZM58.0826 57.23C58.1759 57.2833 58.2792 57.31 58.3926 57.31C58.6192 57.31 59.3259 57.27 60.5126 57.19C60.5659 57.1833 60.6159 57.18 60.6626 57.18C60.7092 57.18 60.7526 57.1767 60.7926 57.17C61.0059 57.1567 61.0726 56.9967 60.9926 56.69C60.9126 56.41 60.7759 56.1933 60.5826 56.04C60.5159 55.9933 60.4559 55.97 60.4026 55.97H59.8726C59.0459 55.8367 58.4592 56.0333 58.1126 56.56C58.0659 56.6267 58.0259 56.6967 57.9926 56.77C57.8926 56.97 57.9226 57.1233 58.0826 57.23Z" fill="black"/>
</svg>
