<svg width="67" height="96" viewBox="0 0 67 96" fill="none" xmlns="http://www.w3.org/2000/svg">
<path d="M25.212 73.898C18.876 76.67 12.056 77.638 4.752 76.802C3.3 76.098 2.42 75.218 2.112 74.162C1.76 73.15 2.288 72.468 3.696 72.116C3.74 72.072 3.784 72.05 3.828 72.05C6.028 72.05 7.26 71.038 7.524 69.014C7.568 68.882 7.59 68.75 7.59 68.618C7.59 68.486 7.59 68.376 7.59 68.288V47.96C7.59 44.44 7.238 42.042 6.534 40.766C5.83 39.49 4.598 38.478 2.838 37.73L2.442 36.938C2.398 36.542 2.53 36.19 2.838 35.882C2.838 35.882 2.86 35.816 2.904 35.684C2.948 35.552 3.014 35.376 3.102 35.156C3.322 34.936 3.564 34.826 3.828 34.826H10.296C10.604 34.826 10.978 34.826 11.418 34.826C11.902 34.826 12.43 34.804 13.002 34.76C16.918 34.628 19.932 34.936 22.044 35.684C22.396 35.86 22.748 36.036 23.1 36.212C23.496 36.344 23.87 36.52 24.222 36.74C28.798 38.72 32.23 42.548 34.518 48.224C34.694 48.62 34.848 49.038 34.98 49.478C35.112 49.874 35.266 50.292 35.442 50.732C36.102 56.408 35.904 60.742 34.848 63.734C34.144 65.67 33.088 67.54 31.68 69.344C29.524 71.368 28.006 72.6 27.126 73.04C26.818 73.216 26.51 73.392 26.202 73.568C25.894 73.7 25.564 73.81 25.212 73.898ZM13.068 73.04C15.488 73.964 18.568 73.48 22.308 71.588C25.652 69.96 27.83 68.002 28.842 65.714C28.886 65.67 28.908 65.626 28.908 65.582C30.58 60.478 30.866 54.89 29.766 48.818C29.018 42.262 25.476 38.61 19.14 37.862C18.744 37.818 18.348 37.796 17.952 37.796C17.556 37.752 17.16 37.73 16.764 37.73C14.52 37.73 13.134 38.236 12.606 39.248C12.298 39.864 12.144 40.876 12.144 42.284C12.144 46.64 12.078 50.446 11.946 53.702C11.814 56.958 11.594 59.664 11.286 61.82V71.126L13.068 73.04ZM45.1492 76.472C43.9172 77.044 42.7512 76.824 41.6512 75.812L41.3212 75.482C41.0572 75.13 40.9252 74.822 40.9252 74.558C40.9252 74.25 40.9912 74.008 41.1232 73.832L41.3212 73.568C42.0692 72.908 43.0372 72.578 44.2252 72.578C46.9532 72.094 48.5812 71.632 49.1092 71.192C49.6812 70.664 49.9672 69.3 49.9672 67.1V43.868C49.9672 41.976 49.7912 40.81 49.4392 40.37C49.0872 40.018 47.9652 39.6 46.0732 39.116C45.4572 38.896 44.7092 38.764 43.8292 38.72C42.6412 38.676 41.9152 38.368 41.6512 37.796C41.3872 37.18 41.2772 36.322 41.3212 35.222C42.9932 35.002 45.1492 34.892 47.7892 34.892C50.4292 34.848 53.5092 34.914 57.0292 35.09C58.1292 35.134 59.1192 35.178 59.9992 35.222C60.8792 35.222 61.6712 35.222 62.3752 35.222L63.2992 36.212C63.2992 36.52 63.2112 36.828 63.0352 37.136C62.9032 37.444 62.7492 37.686 62.5732 37.862L62.3752 38.126C62.1992 38.126 61.7812 38.192 61.1212 38.324C60.5052 38.412 59.6252 38.566 58.4812 38.786C57.9972 38.874 57.5132 38.962 57.0292 39.05C56.5892 39.094 56.1492 39.116 55.7092 39.116C55.7092 46.068 55.3792 51.172 54.7192 54.428V65.912C54.2352 68.684 54.1472 70.378 54.4552 70.994C54.7632 71.654 55.9512 72.358 58.0192 73.106C58.1952 73.15 58.3932 73.216 58.6132 73.304C58.8772 73.392 59.1632 73.48 59.4712 73.568C60.7912 73.656 61.7592 73.964 62.3752 74.492V75.482C61.8912 76.362 60.8352 76.714 59.2072 76.538C59.0312 76.494 58.8992 76.472 58.8112 76.472C58.7232 76.472 58.6352 76.472 58.5472 76.472C53.7072 75.46 50.2312 75.13 48.1192 75.482C47.0192 75.658 46.0292 75.988 45.1492 76.472Z" fill="black"/>
<path d="M8.82 92.53C7.86 92.95 6.82667 93.0967 5.72 92.97C5.5 92.8633 5.36667 92.73 5.32 92.57C5.26667 92.4167 5.34667 92.3133 5.56 92.26C5.56667 92.2533 5.57333 92.25 5.58 92.25C5.91333 92.25 6.1 92.0967 6.14 91.79C6.14667 91.77 6.15 91.75 6.15 91.73C6.15 91.71 6.15 91.6933 6.15 91.68V88.6C6.15 88.0667 6.09667 87.7033 5.99 87.51C5.88333 87.3167 5.69667 87.1633 5.43 87.05L5.37 86.93C5.36333 86.87 5.38333 86.8167 5.43 86.77C5.43 86.77 5.43333 86.76 5.44 86.74C5.44667 86.72 5.45667 86.6933 5.47 86.66C5.50333 86.6267 5.54 86.61 5.58 86.61H6.56C6.60667 86.61 6.66333 86.61 6.73 86.61C6.80333 86.61 6.88333 86.6067 6.97 86.6C7.56333 86.58 8.02 86.6267 8.34 86.74C8.39333 86.7667 8.44667 86.7933 8.5 86.82C8.56 86.84 8.61667 86.8667 8.67 86.9C9.36333 87.2 9.88333 87.78 10.23 88.64C10.2567 88.7 10.28 88.7633 10.3 88.83C10.32 88.89 10.3433 88.9533 10.37 89.02C10.47 89.88 10.44 90.5367 10.28 90.99C10.1733 91.2833 10.0133 91.5667 9.8 91.84C9.47333 92.1467 9.24333 92.3333 9.11 92.4C9.06333 92.4267 9.01667 92.4533 8.97 92.48C8.92333 92.5 8.87333 92.5167 8.82 92.53ZM6.98 92.4C7.34667 92.54 7.81333 92.4667 8.38 92.18C8.88667 91.9333 9.21667 91.6367 9.37 91.29C9.37667 91.2833 9.38 91.2767 9.38 91.27C9.63333 90.4967 9.67667 89.65 9.51 88.73C9.39667 87.7367 8.86 87.1833 7.9 87.07C7.84 87.0633 7.78 87.06 7.72 87.06C7.66 87.0533 7.6 87.05 7.54 87.05C7.2 87.05 6.99 87.1267 6.91 87.28C6.86333 87.3733 6.84 87.5267 6.84 87.74C6.84 88.4 6.83 88.9767 6.81 89.47C6.79 89.9633 6.75667 90.3733 6.71 90.7V92.11L6.98 92.4ZM13.2508 87.14C13.1441 87.2133 13.0374 87.25 12.9308 87.25C12.6108 87.25 12.3708 87.1233 12.2108 86.87C12.1374 86.7567 12.1008 86.6433 12.1008 86.53C12.1541 86.43 12.2174 86.34 12.2908 86.26C12.3708 86.1733 12.4641 86.0967 12.5708 86.03C12.6641 85.97 12.7441 85.94 12.8108 85.94C13.0508 85.94 13.2474 86.0567 13.4008 86.29C13.4808 86.41 13.5208 86.53 13.5208 86.65C13.5208 86.8433 13.4308 87.0067 13.2508 87.14ZM14.5908 92.86C13.3774 93.08 12.3008 93.0967 11.3608 92.91C11.2208 92.95 11.1308 92.92 11.0908 92.82C11.0708 92.7467 11.0808 92.6667 11.1208 92.58C11.2474 92.4933 11.4708 92.4767 11.7908 92.53C11.9108 92.5567 12.0141 92.57 12.1008 92.57C12.1874 92.57 12.2574 92.5633 12.3108 92.55C12.4908 92.55 12.5941 92.52 12.6208 92.46C12.6408 92.42 12.6508 92.3667 12.6508 92.3C12.6508 92.2867 12.6508 92.27 12.6508 92.25C12.6574 92.23 12.6641 92.2067 12.6708 92.18C12.7108 92.0133 12.7041 91.8967 12.6508 91.83C12.6241 91.5967 12.6341 91.1667 12.6808 90.54C12.7208 89.9933 12.6741 89.5567 12.5408 89.23C12.3541 89.17 12.0574 89.1633 11.6508 89.21C11.6174 89.2167 11.5841 89.22 11.5508 89.22C11.5241 89.22 11.4974 89.2233 11.4708 89.23C11.2708 89.2433 11.1408 89.1867 11.0808 89.06C11.0208 88.9333 11.1041 88.8367 11.3308 88.77C11.3374 88.7633 11.3474 88.76 11.3608 88.76C11.4341 88.76 11.8508 88.73 12.6108 88.67C12.8508 88.65 13.0641 88.64 13.2508 88.64C13.3308 89.0667 13.3508 89.7467 13.3108 90.68C13.2708 91.4533 13.2908 92.0367 13.3708 92.43H13.9008C14.0074 92.4233 14.1041 92.42 14.1908 92.42C14.2841 92.42 14.3674 92.42 14.4408 92.42C14.4941 92.42 14.5441 92.4567 14.5908 92.53C14.6441 92.6033 14.6741 92.6767 14.6808 92.75C14.6874 92.8233 14.6574 92.86 14.5908 92.86ZM18.3226 93C17.4892 93.14 16.8192 93.0867 16.3126 92.84C16.2126 92.8 16.1292 92.7567 16.0626 92.71C15.6026 92.3967 15.3659 91.97 15.3526 91.43C15.2859 90.6033 15.5126 89.9033 16.0326 89.33C16.5126 88.81 17.0892 88.56 17.7626 88.58C17.7892 88.58 17.8126 88.58 17.8326 88.58C17.8592 88.58 17.8859 88.5833 17.9126 88.59H19.0426C19.0426 88.49 19.0792 88.3833 19.1526 88.27C19.1726 88.23 19.1826 88.1967 19.1826 88.17C19.1826 87.8167 19.1526 87.5967 19.0926 87.51C19.0259 87.4233 18.8192 87.31 18.4726 87.17C18.4259 87.17 18.3792 87.16 18.3326 87.14C18.2859 87.1133 18.2526 87.0867 18.2326 87.06L18.1926 87.03C18.1926 86.9433 18.2259 86.9 18.2926 86.9L18.3226 86.89C18.9292 86.69 19.3026 86.5933 19.4426 86.6C19.6492 86.62 19.7826 86.7767 19.8426 87.07C19.8559 87.1633 19.8659 87.28 19.8726 87.42C19.8859 87.5533 19.8926 87.7067 19.8926 87.88C19.9259 88.1533 19.9426 88.5133 19.9426 88.96C19.9492 89.4 19.9392 89.9267 19.9126 90.54C19.9059 90.7467 19.8992 90.94 19.8926 91.12C19.8926 91.2933 19.8926 91.4467 19.8926 91.58C19.8926 91.96 19.9926 92.21 20.1926 92.33C20.2526 92.3633 20.3426 92.3967 20.4626 92.43C20.6492 92.4767 20.6826 92.58 20.5626 92.74C20.4292 92.92 20.2359 93.0267 19.9826 93.06C19.8359 93.0667 19.7092 93.0467 19.6026 93C19.3226 92.7867 19.0392 92.73 18.7526 92.83C18.7392 92.8367 18.7159 92.8467 18.6826 92.86C18.6559 92.8733 18.6226 92.8867 18.5826 92.9C18.5292 92.9267 18.4792 92.9467 18.4326 92.96C18.3926 92.9733 18.3559 92.9867 18.3226 93ZM17.1326 92.67C17.1659 92.6767 17.1992 92.6833 17.2326 92.69C17.2726 92.6967 17.3092 92.7033 17.3426 92.71C17.3759 92.71 17.4526 92.6933 17.5726 92.66C17.7859 92.6 17.9459 92.57 18.0526 92.57C18.5592 92.43 18.8792 92.2433 19.0126 92.01C19.1259 91.8167 19.1826 91.48 19.1826 91V89.73C19.1826 89.31 19.0126 89.0767 18.6726 89.03C18.6459 89.0233 18.6126 89.02 18.5726 89.02C18.5392 89.02 18.5059 89.02 18.4726 89.02H18.0526C17.4792 89.0333 17.0992 89.1767 16.9126 89.45C16.4459 90.0767 16.2126 90.7367 16.2126 91.43C16.0859 92.07 16.3926 92.4833 17.1326 92.67ZM25.9887 93.27C25.762 93.3433 25.5853 93.3067 25.4587 93.16L25.4287 93.13C25.122 92.9033 24.7753 92.83 24.3887 92.91C24.3353 92.9167 24.2087 92.9467 24.0087 93C23.7487 93.0867 23.3187 93.13 22.7187 93.13C22.3187 93.13 21.9487 92.95 21.6087 92.59C21.5753 92.55 21.542 92.51 21.5087 92.47C21.482 92.43 21.4553 92.3933 21.4287 92.36C21.2153 91.9267 21.192 91.5567 21.3587 91.25C21.432 91.11 21.5387 91.0033 21.6787 90.93C22.372 90.4167 23.0187 90.16 23.6187 90.16H24.5187C24.692 90.0467 24.7787 89.9167 24.7787 89.77C24.7653 89.3167 24.552 89.0167 24.1387 88.87C23.732 88.87 23.452 88.9133 23.2987 89C23.1787 89.0667 23.0687 89.15 22.9687 89.25C22.8687 89.3633 22.7387 89.39 22.5787 89.33C22.532 89.31 22.492 89.2833 22.4587 89.25C22.292 89.0833 22.2487 88.9567 22.3287 88.87L22.5887 88.61C23.302 88.37 23.9687 88.3833 24.5887 88.65C24.622 88.6633 24.6553 88.68 24.6887 88.7C24.722 88.7133 24.752 88.7267 24.7787 88.74C25.172 89.06 25.3887 89.4033 25.4287 89.77C25.4753 89.9433 25.5087 90.14 25.5287 90.36C25.5487 90.58 25.5587 90.8167 25.5587 91.07C25.5453 91.1367 25.532 91.2267 25.5187 91.34C25.5053 91.4533 25.4953 91.5933 25.4887 91.76C25.482 91.86 25.462 91.93 25.4287 91.97C25.4353 92.5567 25.6487 92.8567 26.0687 92.87C26.1287 92.87 26.1653 92.8867 26.1787 92.92C26.1853 92.9467 26.1887 92.9667 26.1887 92.98C26.1953 92.9867 26.1987 92.9933 26.1987 93C26.232 93.12 26.162 93.21 25.9887 93.27ZM22.0687 92.36C22.1553 92.6333 22.3553 92.7767 22.6687 92.79C22.7553 92.79 22.8553 92.7733 22.9687 92.74C23.222 92.74 23.6187 92.64 24.1587 92.44C24.212 92.4267 24.2587 92.4133 24.2987 92.4C24.3387 92.38 24.372 92.3667 24.3987 92.36C24.6387 92.3533 24.7653 92.2233 24.7787 91.97V91.45C24.8453 91.03 24.782 90.7567 24.5887 90.63C24.462 90.5433 24.2253 90.4733 23.8787 90.42C23.832 90.42 23.752 90.43 23.6387 90.45C23.5253 90.4633 23.3753 90.4867 23.1887 90.52C23.142 90.5267 23.102 90.5333 23.0687 90.54C23.0353 90.54 23.002 90.54 22.9687 90.54C22.6287 90.6667 22.3287 90.9267 22.0687 91.32C21.9353 91.6 21.9353 91.9467 22.0687 92.36ZM31.0205 92.92C30.8338 93.0067 30.6571 92.9733 30.4905 92.82L30.4405 92.77C30.4005 92.7167 30.3805 92.67 30.3805 92.63C30.3805 92.5833 30.3905 92.5467 30.4105 92.52L30.4405 92.48C30.5538 92.38 30.7005 92.33 30.8805 92.33C31.2938 92.2567 31.5405 92.1867 31.6205 92.12C31.7071 92.04 31.7505 91.8333 31.7505 91.5V87.98C31.7505 87.6933 31.7238 87.5167 31.6705 87.45C31.6171 87.3967 31.4471 87.3333 31.1605 87.26C31.0671 87.2267 30.9538 87.2067 30.8205 87.2C30.6405 87.1933 30.5305 87.1467 30.4905 87.06C30.4505 86.9667 30.4338 86.8367 30.4405 86.67C30.6938 86.6367 31.0205 86.62 31.4205 86.62C31.8205 86.6133 32.2871 86.6233 32.8205 86.65C32.9871 86.6567 33.1371 86.6633 33.2705 86.67C33.4038 86.67 33.5238 86.67 33.6305 86.67L33.7705 86.82C33.7705 86.8667 33.7571 86.9133 33.7305 86.96C33.7105 87.0067 33.6871 87.0433 33.6605 87.07L33.6305 87.11C33.6038 87.11 33.5405 87.12 33.4405 87.14C33.3471 87.1533 33.2138 87.1767 33.0405 87.21C32.9671 87.2233 32.8938 87.2367 32.8205 87.25C32.7538 87.2567 32.6871 87.26 32.6205 87.26C32.6205 88.3133 32.5705 89.0867 32.4705 89.58V91.32C32.3971 91.74 32.3838 91.9967 32.4305 92.09C32.4771 92.19 32.6571 92.2967 32.9705 92.41C32.9971 92.4167 33.0271 92.4267 33.0605 92.44C33.1005 92.4533 33.1438 92.4667 33.1905 92.48C33.3905 92.4933 33.5371 92.54 33.6305 92.62V92.77C33.5571 92.9033 33.3971 92.9567 33.1505 92.93C33.1238 92.9233 33.1038 92.92 33.0905 92.92C33.0771 92.92 33.0638 92.92 33.0505 92.92C32.3171 92.7667 31.7905 92.7167 31.4705 92.77C31.3038 92.7967 31.1538 92.8467 31.0205 92.92ZM37.3095 92.94C36.6761 93.04 35.9228 93.03 35.0495 92.91C35.0961 92.7633 35.1995 92.6433 35.3595 92.55C35.4195 92.5167 35.4628 92.4867 35.4895 92.46C35.6028 92.3333 35.6761 92.1867 35.7095 92.02C35.7095 91.8 35.7195 91.4667 35.7395 91.02C35.7728 90.1267 35.7628 89.4567 35.7095 89.01C35.6561 88.97 35.4961 88.9867 35.2295 89.06C34.9628 89.1267 34.7495 89.14 34.5895 89.1C34.4295 89.0867 34.4028 89.0067 34.5095 88.86C34.6628 88.7067 34.9728 88.5867 35.4395 88.5C35.5128 88.4867 35.5828 88.4767 35.6495 88.47C35.7161 88.4633 35.7761 88.46 35.8295 88.46C36.0561 88.38 36.2128 88.43 36.2995 88.61C36.3128 88.6367 36.3261 88.6667 36.3395 88.7C36.3528 88.7267 36.3661 88.7567 36.3795 88.79C36.4128 88.8233 36.4461 88.88 36.4795 88.96C36.5195 89.0333 36.5495 89.1 36.5695 89.16L36.5995 89.24C37.1528 88.7933 37.7828 88.57 38.4895 88.57C38.7628 88.6033 38.9961 88.7667 39.1895 89.06C39.2161 89.1 39.2328 89.1367 39.2395 89.17C39.2528 89.1967 39.2628 89.22 39.2695 89.24C39.1161 89.5 38.8928 89.5367 38.5995 89.35C38.5328 89.33 38.4428 89.29 38.3295 89.23C38.0761 89.11 37.8761 89.0733 37.7295 89.12C37.7228 89.1267 37.7161 89.13 37.7095 89.13C37.2161 89.3833 36.8828 89.64 36.7095 89.9C36.4895 90.1267 36.3795 90.3867 36.3795 90.68V91.57C36.3795 91.6167 36.3795 91.67 36.3795 91.73C36.3795 91.79 36.3761 91.8567 36.3695 91.93C36.3495 92.1367 36.3695 92.2667 36.4295 92.32C36.5161 92.3733 36.7595 92.42 37.1595 92.46C37.2795 92.4733 37.3628 92.5267 37.4095 92.62C37.4561 92.72 37.4228 92.8267 37.3095 92.94ZM43.3898 92.95C42.8898 93.27 42.4265 93.2167 41.9998 92.79C41.6798 92.65 41.3698 92.65 41.0698 92.79C40.7832 92.9767 40.5598 92.9733 40.3998 92.78C40.3265 92.6867 40.2898 92.5867 40.2898 92.48C40.2898 91.86 40.3032 91.3167 40.3298 90.85C40.3565 90.3833 40.3965 89.9933 40.4498 89.68V88.75C40.4498 88.2833 40.4165 87.98 40.3498 87.84C40.2898 87.7 40.0765 87.4467 39.7098 87.08L39.6698 87.04C39.8832 86.94 40.0898 86.89 40.2898 86.89C40.8232 86.6833 41.1498 86.59 41.2698 86.61C41.3965 86.6367 41.4565 86.8 41.4498 87.1C41.4432 87.1667 41.4332 87.26 41.4198 87.38C41.4132 87.5 41.3998 87.6467 41.3798 87.82C41.2732 87.9267 41.2198 88.0833 41.2198 88.29C41.2265 88.5833 41.3798 88.7367 41.6798 88.75C41.7998 88.65 41.9598 88.6 42.1598 88.6C42.9732 88.3933 43.7132 88.5367 44.3798 89.03C44.4732 89.0967 44.5665 89.1733 44.6598 89.26C44.7532 89.34 44.8498 89.43 44.9498 89.53C45.3498 90.0967 45.4732 90.6867 45.3198 91.3C45.1732 91.8667 44.8432 92.26 44.3298 92.48L43.3898 92.95ZM41.3798 92.02C41.9065 92.4467 42.3932 92.6233 42.8398 92.55C42.9732 92.5233 43.1132 92.48 43.2598 92.42C43.4065 92.36 43.5565 92.2767 43.7098 92.17C44.1632 91.8567 44.4232 91.4167 44.4898 90.85C44.5632 90.2567 44.4032 89.7633 44.0098 89.37C43.4098 88.9367 42.6898 88.8867 41.8498 89.22C41.3298 89.48 41.0698 89.8933 41.0698 90.46V90.93C41.0698 91.1167 41.1265 91.3867 41.2398 91.74C41.2665 91.8067 41.2898 91.8633 41.3098 91.91C41.3365 91.9567 41.3598 91.9933 41.3798 92.02ZM50.9008 93.27C50.6741 93.3433 50.4974 93.3067 50.3708 93.16L50.3408 93.13C50.0341 92.9033 49.6874 92.83 49.3008 92.91C49.2474 92.9167 49.1208 92.9467 48.9208 93C48.6608 93.0867 48.2308 93.13 47.6308 93.13C47.2308 93.13 46.8608 92.95 46.5208 92.59C46.4874 92.55 46.4541 92.51 46.4208 92.47C46.3941 92.43 46.3674 92.3933 46.3408 92.36C46.1274 91.9267 46.1041 91.5567 46.2708 91.25C46.3441 91.11 46.4508 91.0033 46.5908 90.93C47.2841 90.4167 47.9308 90.16 48.5308 90.16H49.4308C49.6041 90.0467 49.6908 89.9167 49.6908 89.77C49.6774 89.3167 49.4641 89.0167 49.0508 88.87C48.6441 88.87 48.3641 88.9133 48.2108 89C48.0908 89.0667 47.9808 89.15 47.8808 89.25C47.7808 89.3633 47.6508 89.39 47.4908 89.33C47.4441 89.31 47.4041 89.2833 47.3708 89.25C47.2041 89.0833 47.1608 88.9567 47.2408 88.87L47.5008 88.61C48.2141 88.37 48.8808 88.3833 49.5008 88.65C49.5341 88.6633 49.5674 88.68 49.6008 88.7C49.6341 88.7133 49.6641 88.7267 49.6908 88.74C50.0841 89.06 50.3008 89.4033 50.3408 89.77C50.3874 89.9433 50.4208 90.14 50.4408 90.36C50.4608 90.58 50.4708 90.8167 50.4708 91.07C50.4574 91.1367 50.4441 91.2267 50.4308 91.34C50.4174 91.4533 50.4074 91.5933 50.4008 91.76C50.3941 91.86 50.3741 91.93 50.3408 91.97C50.3474 92.5567 50.5608 92.8567 50.9808 92.87C51.0408 92.87 51.0774 92.8867 51.0908 92.92C51.0974 92.9467 51.1008 92.9667 51.1008 92.98C51.1074 92.9867 51.1108 92.9933 51.1108 93C51.1441 93.12 51.0741 93.21 50.9008 93.27ZM46.9808 92.36C47.0674 92.6333 47.2674 92.7767 47.5808 92.79C47.6674 92.79 47.7674 92.7733 47.8808 92.74C48.1341 92.74 48.5308 92.64 49.0708 92.44C49.1241 92.4267 49.1708 92.4133 49.2108 92.4C49.2508 92.38 49.2841 92.3667 49.3108 92.36C49.5508 92.3533 49.6774 92.2233 49.6908 91.97V91.45C49.7574 91.03 49.6941 90.7567 49.5008 90.63C49.3741 90.5433 49.1374 90.4733 48.7908 90.42C48.7441 90.42 48.6641 90.43 48.5508 90.45C48.4374 90.4633 48.2874 90.4867 48.1008 90.52C48.0541 90.5267 48.0141 90.5333 47.9808 90.54C47.9474 90.54 47.9141 90.54 47.8808 90.54C47.5408 90.6667 47.2408 90.9267 46.9808 91.32C46.8474 91.6 46.8474 91.9467 46.9808 92.36ZM52.9465 94.76C52.6265 95.08 52.1698 95.1633 51.5765 95.01C51.3765 94.91 51.3165 94.7667 51.3965 94.58C51.4632 94.4 51.6132 94.2933 51.8465 94.26C51.9265 94.2467 52.0032 94.25 52.0765 94.27C52.1898 94.3167 52.3032 94.34 52.4165 94.34C52.4698 94.34 52.5165 94.3367 52.5565 94.33C52.5965 94.33 52.6298 94.3267 52.6565 94.32C52.7098 94.3133 52.7832 94.2633 52.8765 94.17C52.9298 94.11 52.9665 94.0667 52.9865 94.04C53.0132 94.0133 53.0398 93.98 53.0665 93.94C53.0932 93.9067 53.1332 93.85 53.1865 93.77L53.1965 93.76C53.3898 93.4333 53.5398 93.1667 53.6465 92.96C53.7532 92.7467 53.8198 92.5867 53.8465 92.48C53.9065 92.2067 53.8432 91.8633 53.6565 91.45C53.6298 91.3833 53.5865 91.2933 53.5265 91.18C53.4732 91.0667 53.4065 90.93 53.3265 90.77C53.1532 90.43 53.0265 90.22 52.9465 90.14C52.7865 89.52 52.4598 89.1733 51.9665 89.1C51.8798 89.0933 51.7898 88.99 51.6965 88.79C51.6698 88.7433 51.6498 88.7067 51.6365 88.68C51.6232 88.6533 51.6132 88.6333 51.6065 88.62C51.6132 88.62 52.3098 88.63 53.6965 88.65C53.8432 88.65 53.9298 88.72 53.9565 88.86C53.9832 88.9867 53.9365 89.08 53.8165 89.14C53.5098 89.26 53.4298 89.47 53.5765 89.77C53.6698 90.1367 53.9198 90.72 54.3265 91.52C54.5798 91.1933 54.7998 90.8733 54.9865 90.56C55.1732 90.2467 55.3265 89.9433 55.4465 89.65C55.5998 89.4967 55.5732 89.3567 55.3665 89.23C55.3465 89.2167 55.3198 89.2033 55.2865 89.19C55.2598 89.1767 55.2298 89.16 55.1965 89.14C55.0832 89.14 55.0265 89.0767 55.0265 88.95C55.0132 88.7967 55.0832 88.7 55.2365 88.66C55.2565 88.6533 55.2865 88.65 55.3265 88.65L56.9665 88.7C56.9065 88.8667 56.8132 88.9933 56.6865 89.08C56.6332 89.1133 56.5865 89.1467 56.5465 89.18C56.5065 89.2133 56.4732 89.2433 56.4465 89.27C56.2998 89.5833 56.1732 89.7933 56.0665 89.9C55.6398 90.6067 55.2398 91.2733 54.8665 91.9C54.4932 92.5267 54.1432 93.1067 53.8165 93.64C53.6498 93.8867 53.4932 94.1033 53.3465 94.29C53.2065 94.4767 53.0732 94.6333 52.9465 94.76ZM61.5326 92.85C60.9459 93.1367 60.3059 93.1667 59.6126 92.94C59.4526 92.8933 59.1592 92.7733 58.7326 92.58C58.1792 92.2067 57.8792 91.71 57.8326 91.09C57.8192 90.81 57.8526 90.55 57.9326 90.31C58.1459 89.4367 58.6759 88.86 59.5226 88.58C59.6292 88.5467 59.7392 88.52 59.8526 88.5C59.9659 88.4733 60.0792 88.4533 60.1926 88.44H60.8726C61.4859 88.44 61.9092 88.5767 62.1426 88.85C62.3092 89.07 62.4592 89.4667 62.5926 90.04C62.6926 90.2267 62.6326 90.3767 62.4126 90.49C62.3526 90.5167 62.2826 90.5467 62.2026 90.58C62.0692 90.58 61.6459 90.62 60.9326 90.7C60.4726 90.7467 60.0926 90.7467 59.7926 90.7C59.3526 90.7 58.9992 90.7467 58.7326 90.84C58.6126 91.3067 58.6792 91.6967 58.9326 92.01C58.9859 92.07 59.0492 92.1267 59.1226 92.18C59.5159 92.48 59.8392 92.6467 60.0926 92.68C60.2992 92.7 60.5126 92.6667 60.7326 92.58C61.0726 92.4667 61.3492 92.38 61.5626 92.32C61.7826 92.2533 61.9392 92.2067 62.0326 92.18C62.0992 92.1067 62.1792 92.1033 62.2726 92.17C62.3992 92.25 62.3926 92.3667 62.2526 92.52C62.2392 92.54 62.2226 92.56 62.2026 92.58C62.1492 92.6333 62.0059 92.6933 61.7726 92.76C61.6859 92.7867 61.6059 92.8167 61.5326 92.85ZM59.0826 90.23C59.1759 90.2833 59.2792 90.31 59.3926 90.31C59.6192 90.31 60.3259 90.27 61.5126 90.19C61.5659 90.1833 61.6159 90.18 61.6626 90.18C61.7092 90.18 61.7526 90.1767 61.7926 90.17C62.0059 90.1567 62.0726 89.9967 61.9926 89.69C61.9126 89.41 61.7759 89.1933 61.5826 89.04C61.5159 88.9933 61.4559 88.97 61.4026 88.97H60.8726C60.0459 88.8367 59.4592 89.0333 59.1126 89.56C59.0659 89.6267 59.0259 89.6967 58.9926 89.77C58.8926 89.97 58.9226 90.1233 59.0826 90.23Z" fill="black"/>
</svg>
